<svg width="111" height="76" viewBox="0 0 111 76" fill="none" xmlns="http://www.w3.org/2000/svg">
<path d="M111 0H0V76H111V0Z" fill="white"/>
<path d="M108.893 2.08691H2.146V73.8373H108.893V2.08691Z" fill="#164194"/>
<path d="M53.2245 17.7195L55.4829 16.05L57.7413 17.7195L56.8756 15.0256L59.1716 13.394H56.3486L55.4829 10.6621L54.6172 13.394H51.7942L54.0902 15.0256L53.2245 17.7195Z" fill="#FFED00"/>
<path d="M41.5927 20.8689L43.8134 19.1994L46.0718 20.8689L45.2437 18.175L47.5021 16.5434H44.6791L43.8134 13.8115L42.9477 16.5434H40.1624L42.4207 18.175L41.5927 20.8689Z" fill="#FFED00"/>
<path d="M35.3061 22.4243L34.4404 25.1562H31.6174L33.9135 26.8257L33.0477 29.4817L35.3061 27.8502L37.5645 29.4817L36.6988 26.8257L38.9949 25.1562H36.1719L35.3061 22.4243Z" fill="#FFED00"/>
<path d="M32.1826 39.5749L34.441 41.2065L33.5753 38.5505L35.8713 36.881H33.0483L32.1826 34.187L31.3169 36.881H28.4939L30.7899 38.5505L29.9242 41.2065L32.1826 39.5749Z" fill="#FFED00"/>
<path d="M36.1719 48.6432L35.3061 45.9492L34.4404 48.6432H31.6174L33.9135 50.3127L33.0477 53.0066L35.3061 51.3371L37.5645 53.0066L36.6988 50.3127L38.9949 48.6432H36.1719Z" fill="#FFED00"/>
<path d="M44.7168 57.2565L43.8511 54.5625L42.9853 57.2944L40.1624 57.2565L42.4584 58.926L41.5927 61.6199L43.8511 59.9504L46.1095 61.6199L45.2437 58.926L47.5398 57.2565H44.7168Z" fill="#FFED00"/>
<path d="M56.3486 60.4057L55.4829 57.6738L54.6172 60.4057H51.7942L54.0902 62.0373L53.2245 64.7312L55.4829 63.0617L57.7413 64.7312L56.8756 62.0373L59.1716 60.4057H56.3486Z" fill="#FFED00"/>
<path d="M67.9792 57.2565L67.1511 54.5625L66.2854 57.2944L63.4624 57.2565L65.7208 58.926L64.8927 61.6199L67.1511 59.9504L69.3719 61.6199L68.5438 58.926L70.8022 57.2565H67.9792Z" fill="#FFED00"/>
<path d="M76.5588 48.6432L75.6931 45.9492L74.8274 48.6432H72.0044L74.3004 50.3127L73.4347 53.0066L75.6931 51.3371L77.9139 53.0066L77.0858 50.3127L79.3442 48.6432H76.5588Z" fill="#FFED00"/>
<path d="M82.469 36.8429H79.646L78.7803 34.1489L77.9145 36.8429H75.0916L77.3876 38.5124L76.5219 41.2063L78.7803 39.5368L81.0387 41.2063L80.1729 38.5124L82.469 36.8429Z" fill="#FFED00"/>
<path d="M73.4347 29.4441L75.6931 27.8126L77.9139 29.4441L77.0858 26.7881L79.3442 25.1186H76.5588L75.6931 22.3867L74.8274 25.1186H72.0044L74.3004 26.7881L73.4347 29.4441Z" fill="#FFED00"/>
<path d="M67.1501 13.8115L66.2844 16.5434H63.499L65.7574 18.2129L64.9293 20.8689L67.1501 19.1994L69.4085 20.8689L68.5428 18.2129L70.8388 16.5434H68.0158L67.1501 13.8115Z" fill="#FFED00"/>
</svg>
